<svg width="61" height="80" viewBox="0 0 61 80" fill="none" xmlns="http://www.w3.org/2000/svg">
<path d="M31.1218 0L31.1218 27.5862H59.7369L31.1218 0Z" fill="#927533"/>
<path d="M31.1218 0L31.1218 27.5862H2.50668L31.1218 0Z" fill="#FFB101"/>
<path d="M31.1218 80L31.1218 52.4138H59.7369L31.1218 80Z" fill="#927533"/>
<path d="M31.1218 80L31.1218 52.4138H2.50668L31.1218 80Z" fill="#FFB101"/>
<path d="M14.7883 46.8966H10.1126L9.59064 45.0097H5.19765L4.67571 46.8966H0L4.84969 32.2207H9.9386L14.7883 46.8966ZM7.39415 37.1476L6.13279 41.6552H8.6555L7.39415 37.1476Z" fill="white"/>
<path d="M20.0111 32.2207V42.8292H25.013V46.8966H15.6616V32.2207H20.0111Z" fill="white"/>
<path d="M23.9239 32.2207H35.4501V36.288H31.8618V46.8966H27.5123V36.288H23.9239V32.2207Z" fill="white"/>
<path d="M41.1002 41.4036V43.0389H46.7546V46.8966H36.7507V32.2207H46.6458V36.0364H41.1002V37.6298H46.1021V41.4036H41.1002Z" fill="white"/>
<path d="M61 46.8756H56.346L53.9321 42.2632H52.8447V46.8756H48.4952V32.1997H54.5845C56.2373 32.1997 57.6146 32.6749 58.7165 33.6254C59.8039 34.5618 60.3476 35.8058 60.3476 37.3572C60.3476 38.2238 60.1374 39.0065 59.7169 39.7054C59.3109 40.4042 58.7383 40.9703 57.9988 41.4036L61 46.8756ZM54.4975 36.0574H52.8447V38.7829H54.4975C54.9614 38.7969 55.3239 38.6851 55.5849 38.4474C55.8603 38.2098 55.9981 37.8744 55.9981 37.4411C55.9981 37.0078 55.8603 36.6724 55.5849 36.4348C55.3239 36.1832 54.9614 36.0574 54.4975 36.0574Z" fill="white"/>
</svg>
