<svg width="104" height="104" viewBox="0 0 104 104" fill="none" xmlns="http://www.w3.org/2000/svg">
<path d="M41.243 69.4265C40.5463 68.8171 39.774 68.3001 38.9451 67.8881C38.0104 67.4175 37.0483 67.0034 36.0639 66.6481C35.3801 66.4116 34.7968 66.1931 34.3139 65.9924C33.89 65.8222 33.4819 65.6149 33.0943 65.3731C32.797 65.1946 32.5481 64.9457 32.3696 64.6484C32.2094 64.35 32.1302 64.0148 32.1399 63.6763C32.1336 63.3871 32.1979 63.1007 32.3273 62.842C32.4566 62.5832 32.6471 62.3599 32.8822 62.1914C33.6161 61.7524 34.4692 61.5547 35.3214 61.6259C36.4095 61.6213 37.4946 61.7398 38.5561 61.9792C39.4804 62.1833 40.3853 62.4672 41.2605 62.8278L42.3566 58.5857C41.6752 58.2947 40.9719 58.0583 40.2531 57.8786C39.2144 57.6168 38.1562 57.4395 37.089 57.3483V53.6717H32.6347V57.4897C31.6968 57.6448 30.7897 57.9492 29.948 58.3912C29.2413 58.7646 28.6163 59.2753 28.1097 59.8935C27.6417 60.4761 27.2879 61.1417 27.0668 61.8555C26.8416 62.5824 26.7283 63.3395 26.7309 64.1006C26.6973 64.9417 26.8603 65.7791 27.2071 66.5462C27.5538 67.3133 28.0748 67.989 28.7285 68.5194C29.343 69.0231 30.0203 69.445 30.7433 69.7744C31.4859 70.1163 32.246 70.4286 33.0236 70.7113C33.8246 70.9942 34.5317 71.2593 35.1446 71.5066C35.6739 71.7122 36.1829 71.9667 36.6649 72.2667C37.0272 72.4897 37.3399 72.7845 37.584 73.1328C37.8029 73.4753 37.9138 73.8756 37.9021 74.2819C37.9164 74.6004 37.8512 74.9174 37.7124 75.2044C37.5735 75.4914 37.3654 75.7393 37.1068 75.9257C36.1997 76.4009 35.1744 76.6035 34.1548 76.5089C32.9296 76.5157 31.7097 76.3491 30.5312 76.0141C29.518 75.733 28.5305 75.3664 27.5794 74.9183L26.0593 78.9837C26.8368 79.35 27.6333 79.6745 28.4455 79.9557C29.8017 80.4006 31.2098 80.668 32.6347 80.7513V84.958H37.0889V80.6451C38.105 80.5013 39.0904 80.191 40.0055 79.7265C40.7386 79.3471 41.3925 78.8313 41.9323 78.2069C42.413 77.6438 42.7738 76.9886 42.9927 76.2814C43.2028 75.6004 43.3101 74.8918 43.311 74.1791C43.3315 73.2428 43.1443 72.3136 42.763 71.4582C42.4001 70.6845 41.8828 69.9931 41.243 69.4265V69.4265Z" fill="#7100C6"/>
<path d="M57.963 71.646C57.5222 76.053 55.8397 80.2445 53.1108 83.733C50.382 87.2216 46.7191 89.8639 42.5478 91.3529C38.3766 92.8418 33.8684 93.1163 29.5473 92.1442C25.2263 91.1722 21.2699 88.9937 18.1381 85.8619C15.0063 82.73 12.8277 78.7736 11.8557 74.4526C10.8837 70.1315 11.1581 65.6233 12.6471 61.4521C14.1361 57.2808 16.7784 53.6179 20.267 50.8891C23.7555 48.1603 27.947 46.4777 32.354 46.037C31.4589 43.1373 30.9134 40.141 30.7292 37.1119C24.6954 37.8535 18.9914 40.2755 14.2674 44.1017C9.54338 47.9278 5.98938 53.0043 4.01056 58.7524C2.03174 64.5004 1.70771 70.6888 3.0754 76.6121C4.4431 82.5354 7.44749 87.9553 11.7461 92.2539C16.0447 96.5525 21.4646 99.5569 27.3879 100.925C33.3112 102.292 39.4996 101.968 45.2477 99.9895C50.9957 98.0106 56.0722 94.4567 59.8984 89.7326C63.7245 85.0086 66.1465 79.3046 66.8881 73.2708C63.859 73.0866 60.8627 72.5411 57.963 71.646V71.646Z" fill="#7100C6"/>
<path d="M69.3136 2.24362C62.897 2.24362 56.6245 4.14635 51.2894 7.7112C45.9542 11.2761 41.7959 16.3429 39.3404 22.271C36.8849 28.1992 36.2424 34.7223 37.4942 41.0156C38.7461 47.3089 41.8359 53.0896 46.3731 57.6268C50.9103 62.164 56.691 65.2538 62.9843 66.5056C69.2776 67.7575 75.8007 67.115 81.7289 64.6595C87.657 62.204 92.7238 58.0457 96.2887 52.7105C99.8535 47.3753 101.756 41.1029 101.756 34.6863C101.747 26.085 98.3254 17.8387 92.2433 11.7566C86.1612 5.67454 77.9149 2.25335 69.3136 2.24362V2.24362ZM77.6244 41.6522C77.4016 42.3595 77.0394 43.0151 76.5594 43.5803C76.0183 44.203 75.3641 44.7175 74.6313 45.0963C73.7179 45.5638 72.7323 45.8739 71.7159 46.0137V50.3285H67.2611V46.1225C65.8383 46.0412 64.4322 45.7746 63.0784 45.3295C62.2662 45.048 61.4695 44.7237 60.6917 44.3577L62.2077 40.2917C63.1613 40.7362 64.1492 41.1028 65.1619 41.3879C66.3408 41.7195 67.5603 41.8844 68.7849 41.8777C69.8052 41.9714 70.8309 41.769 71.7391 41.2946C71.9972 41.1086 72.2048 40.8612 72.3433 40.5748C72.4817 40.2884 72.5466 39.972 72.5321 39.6542C72.543 39.2475 72.432 38.8468 72.2134 38.5036C71.9704 38.1558 71.6581 37.8619 71.296 37.6406C70.8135 37.3387 70.3032 37.0836 69.7722 36.8787C69.1581 36.6299 68.4506 36.3656 67.6498 36.0779C66.8724 35.7981 66.1183 35.4871 65.3719 35.145C64.6508 34.8141 63.9742 34.3936 63.3583 33.8933C62.7035 33.3627 62.1818 32.6864 61.8349 31.9183C61.488 31.1503 61.3255 30.3117 61.3603 29.4697C61.3568 28.7081 61.4695 27.9505 61.6946 27.2229C61.9192 26.5117 62.2723 25.8476 62.7364 25.2637C63.2448 24.6461 63.8711 24.136 64.5789 23.7633C65.4188 23.3207 66.3244 23.0161 67.2611 22.8614V19.0442H71.7158V22.7215C72.7831 22.8118 73.8413 22.9886 74.88 23.2501C75.6 23.4297 76.3045 23.6663 76.9869 23.9576L75.8907 28.1947C75.0138 27.838 74.1089 27.5546 73.1852 27.3473C72.1237 27.1099 71.0388 26.9925 69.9511 26.9974C69.0978 26.9244 68.2434 27.1231 67.5099 27.565C67.2756 27.7341 67.086 27.9576 66.9573 28.2163C66.8287 28.4749 66.7648 28.761 66.7713 29.0499C66.7639 29.3876 66.8414 29.7217 66.9968 30.0217C67.1766 30.3196 67.4278 30.5681 67.7276 30.7447C68.1119 30.9867 68.5179 31.1924 68.9404 31.3589C69.4224 31.561 70.0132 31.7787 70.6896 32.0197C71.675 32.3737 72.6381 32.7865 73.574 33.2559C74.4028 33.67 75.1761 34.1872 75.8752 34.7952C76.5487 35.3872 77.0833 36.1207 77.4408 36.9431C77.7982 37.7656 77.9698 38.6568 77.9432 39.5531C77.9407 40.2647 77.8333 40.972 77.6244 41.6522V41.6522Z" fill="#7100C6"/>
</svg>
