<svg width="101" height="100" viewBox="0 0 101 100" fill="none" xmlns="http://www.w3.org/2000/svg">
<path d="M48.184 29.8965C50.5091 29.8965 52.6132 30.8445 54.1342 32.3794C55.6576 33.9146 56.6005 36.0349 56.6005 38.3778V46.8591L56.6552 46.9675V46.9696C54.1071 48.2545 51.2287 48.9795 48.184 48.9795C45.1394 48.9795 42.261 48.2543 39.7129 46.9696V46.9675L39.7676 46.8591V38.3778C39.7676 33.6919 43.5361 29.8965 48.184 29.8965Z" fill="#7100C6"/>
<path d="M48.1843 21.4153C50.5095 21.4153 52.3928 23.313 52.3928 25.6559C52.3928 27.9968 50.5095 29.8966 48.1843 29.8966C45.8591 29.8966 43.9758 27.9968 43.9758 25.6559C43.9758 23.313 45.8591 21.4153 48.1843 21.4153Z" fill="#7100C6"/>
<path d="M77.8519 29.6845C78.0624 44.5968 48.3944 97.5351 48.3944 97.5351C48.3944 97.5351 18.7265 46.151 18.9369 29.6845C19.1452 13.2904 32.1255 0 48.3944 0C64.6634 0 77.6205 13.2902 77.8519 29.6845ZM67.3314 29.6845C67.3314 19.1444 58.8539 10.6016 48.3944 10.6016C37.9349 10.6016 29.4574 19.1444 29.4574 29.6845C29.4574 37.1544 33.7162 43.6214 39.9233 46.7555V46.7576C42.4714 48.0425 45.3498 48.7675 48.3944 48.7675C51.4391 48.7675 54.3173 48.0423 56.8656 46.7576V46.7555C63.0727 43.6214 67.3314 37.1544 67.3314 29.6845Z" fill="#7100C6"/>
<path d="M90.4768 69.9709H86.2683V74.2115H90.4768V69.9709Z" fill="#7100C6"/>
<path d="M50.4988 76.3319H46.2903V80.5726H50.4988V76.3319Z" fill="#7100C6"/>
<path d="M50.4988 67.8506H46.2903V72.0912H50.4988V67.8506Z" fill="#7100C6"/>
<path d="M50.4988 59.3693H46.2903V63.6099H50.4988V59.3693Z" fill="#7100C6"/>
<path d="M14.729 67.8506H10.5205V72.0912H14.729V67.8506Z" fill="#7100C6"/>
<path d="M74.1442 100C67.4879 100 59.5362 99.9816 50.3745 99.9445C26.4876 99.8482 2.32868 99.6572 2.08734 99.6553C0.925455 99.6459 -0.00918989 98.689 6.81892e-05 97.5182C0.00911586 96.3531 0.949442 95.4146 2.10376 95.4146C2.10944 95.4146 2.11491 95.4146 2.1208 95.4146C38.5269 95.704 93.5151 95.9655 98.2325 95.5215C98.9624 95.2787 99.7975 95.4494 100.379 96.0335C100.984 96.6414 101.168 97.5708 100.838 98.3655C100.298 99.669 99.1143 99.7278 97.8617 99.7897C97.1362 99.8257 96.0686 99.8571 94.6881 99.8836C92.1484 99.9324 88.4341 99.9663 83.6489 99.9843C80.8557 99.9949 77.6827 100 74.1442 100Z" fill="#7100C6"/>
</svg>
