<svg width="102" height="102" viewBox="0 0 102 102" fill="none" xmlns="http://www.w3.org/2000/svg">
<path d="M32.2732 69.6312L32.6778 67.6616H1.31787L1.72263 69.6312C2.12469 71.5565 3.17542 73.2855 4.6992 74.5291C6.22297 75.7728 8.12745 76.4557 10.0943 76.4637H23.9033C25.8699 76.4554 27.774 75.7723 29.2974 74.5287C30.8209 73.2851 31.8713 71.5563 32.2732 69.6312V69.6312Z" fill="#7100C6"/>
<path d="M69.3223 67.6616L69.727 69.6312C70.1291 71.5565 71.1798 73.2855 72.7036 74.5291C74.2274 75.7727 76.1318 76.4556 78.0987 76.4637H91.9077C93.8743 76.4554 95.7784 75.7723 97.3018 74.5287C98.8252 73.2851 99.8757 71.5563 100.278 69.6312L100.682 67.6616H69.3223Z" fill="#7100C6"/>
<path d="M31.0563 62.6154C30.6479 61.7965 27.6262 55.7402 24.6281 49.7574C22.7436 45.9965 21.2373 42.9998 20.15 40.8512C19.5039 39.5723 18.9999 38.5828 18.6536 37.9091C18.4679 37.5486 18.3202 37.2651 18.2172 37.0722C18.1423 36.8065 17.9826 36.5725 17.7626 36.4059C17.5425 36.2393 17.274 36.1491 16.9979 36.149C16.7219 36.149 16.4534 36.2391 16.2332 36.4056C16.0131 36.5722 15.8534 36.8061 15.7783 37.0717C15.6754 37.2651 15.5276 37.5486 15.342 37.9096C14.9956 38.5828 14.4921 39.5723 13.8455 40.8503C12.7583 42.9998 11.252 45.9965 9.36741 49.757C6.37152 55.7363 3.35151 61.7888 2.94014 62.6137L2.89276 62.7084C2.75151 62.9918 2.72857 63.3196 2.82898 63.6198C2.92938 63.9201 3.14492 64.1682 3.42819 64.3096H3.42862C3.56888 64.3795 3.72154 64.4212 3.8779 64.4321C4.03425 64.4431 4.19124 64.4232 4.33988 64.3734C4.48852 64.3237 4.62591 64.2452 4.74421 64.1424C4.8625 64.0395 4.95937 63.9144 5.0293 63.7741C9.34458 55.122 14.7927 44.2412 16.9978 39.9139C19.2015 44.2391 24.6501 55.1203 28.9667 63.7737C29.0364 63.9143 29.1332 64.0398 29.2515 64.1429C29.3698 64.246 29.5073 64.3248 29.6561 64.3747C29.8048 64.4247 29.962 64.4448 30.1186 64.4339C30.2751 64.423 30.428 64.3814 30.5684 64.3113C30.7089 64.2413 30.8341 64.1442 30.937 64.0257C31.0399 63.9072 31.1184 63.7696 31.168 63.6207C31.2177 63.4718 31.2375 63.3146 31.2263 63.1581C31.2151 63.0016 31.1731 62.8488 31.1028 62.7085L31.0563 62.6154Z" fill="#7100C6"/>
<path d="M99.1071 62.7084L99.0606 62.6154C98.6522 61.7965 95.6305 55.7401 92.6325 49.7574C90.7479 45.9965 89.2416 42.9998 88.1544 40.8512C87.5082 39.5723 87.0047 38.5824 86.6579 37.9091C86.4723 37.5486 86.3245 37.2656 86.2211 37.0709C86.146 36.8054 85.9862 36.5717 85.766 36.4053C85.5459 36.2389 85.2775 36.149 85.0016 36.149C84.7256 36.1491 84.4573 36.2393 84.2373 36.4058C84.0173 36.5724 83.8576 36.8062 83.7826 37.0717C83.6797 37.2651 83.5319 37.5486 83.3468 37.9091C83 38.5824 82.4965 39.5723 81.8499 40.8503C80.7627 42.9998 79.2568 45.9965 77.3718 49.757C74.3759 55.7362 71.3559 61.7888 70.9445 62.6136L70.8971 62.7088C70.7586 62.9918 70.7377 63.3181 70.8387 63.6165C70.9398 63.9149 71.1548 64.1612 71.4367 64.3018C71.7187 64.4424 72.0448 64.4658 72.3439 64.367C72.6431 64.2681 72.891 64.055 73.0337 63.7741C76.3922 57.0406 82.5313 44.7619 85.0021 39.9138C87.2059 44.239 92.6545 55.1203 96.9706 63.7737C97.0398 63.9151 97.1364 64.0415 97.2547 64.1455C97.373 64.2495 97.5107 64.3291 97.6599 64.3796C97.809 64.4301 97.9668 64.4506 98.1239 64.4399C98.281 64.4293 98.4345 64.3876 98.5755 64.3173C98.7164 64.247 98.8421 64.1495 98.9452 64.0305C99.0483 63.9114 99.1269 63.7731 99.1763 63.6235C99.2257 63.474 99.245 63.3161 99.2332 63.1591C99.2213 63.002 99.1785 62.8488 99.1071 62.7084L99.1071 62.7084Z" fill="#7100C6"/>
<path d="M68.1255 84.8362C67.6257 84.7149 61.729 83.3541 59.0371 82.5618C58.7368 79.6725 56.3281 47.5878 55.1494 31.8191H89.6806C89.6807 30.344 89.1272 28.9225 88.1297 27.8358C87.1322 26.749 85.7633 26.0761 84.2936 25.95L54.5209 23.3952L54.5043 23.1735L56.0972 16.8061C56.2901 16.0302 56.3039 15.2205 56.1374 14.4385C55.9709 13.6565 55.6286 12.9226 55.1362 12.2926L55.0943 12.2412C54.5911 11.6457 53.9641 11.1672 53.2569 10.839C52.5498 10.5107 51.7796 10.3407 51 10.3407C50.2204 10.3407 49.4502 10.5107 48.743 10.839C48.0359 11.1672 47.4089 11.6457 46.9056 12.2412L46.8637 12.2926C46.3714 12.9226 46.029 13.6565 45.8625 14.4385C45.696 15.2205 45.7098 16.0302 45.9028 16.8061L47.4956 23.1734L47.4791 23.3952L17.7064 25.95C16.2367 26.0761 14.8678 26.749 13.8703 27.8358C12.8728 28.9225 12.3193 30.344 12.3193 31.8191H46.8505C45.6719 47.5878 43.2631 79.6725 42.9629 82.5618C40.2711 83.3541 34.3743 84.7149 33.8745 84.8362C32.8037 85.0962 31.8143 85.6185 30.9955 86.3559C30.1767 87.0934 29.5542 88.0229 29.1839 89.0607L28.2611 91.6592H73.7389L72.8161 89.0607C72.4458 88.0229 71.8233 87.0934 71.0045 86.356C70.1857 85.6185 69.1963 85.0963 68.1255 84.8362V84.8362Z" fill="#7100C6"/>
</svg>
