<svg width="111" height="111" viewBox="0 0 111 111" fill="none" xmlns="http://www.w3.org/2000/svg">
<path d="M92.7797 36.3494C90.6588 34.5907 88.7145 35.732 87.4367 36.7444C80.8255 41.9802 75.2562 46.083 69.2866 50.6023C62.7168 55.576 55.9232 60.7193 48.6306 66.5528C43.0859 70.988 41.7971 77.0693 45.0936 83.2374C46.0151 85.2505 48.1777 87.0354 51.0291 88.1355C52.4461 88.6977 53.9552 88.9919 55.4796 89.0031C59.4384 89.0031 63.0896 86.8736 65.8878 82.8105C71.4899 74.6754 76.2241 67.5206 81.2363 59.9456C85.1479 54.034 88.5894 48.4913 93.0641 41.9027C94.4891 39.8045 94.3802 37.6767 92.7797 36.3494Z" fill="#7100C6"/>
<path d="M55.5021 33.0191C61.1265 33.5125 66.5967 35.1188 71.5948 37.7447C72.3314 38.1322 73.0593 38.5452 73.7661 38.9794C74.4856 38.4131 75.2051 37.8427 75.9203 37.2765C78.8323 34.969 81.7457 32.6643 84.6606 30.3625C82.1425 28.7908 79.4998 27.4281 76.759 26.2883C76.2311 26.0669 75.6989 25.8498 75.1625 25.6454C66.8873 22.4597 57.9612 21.3355 49.1545 22.37C40.3479 23.4046 31.9252 26.5667 24.6136 31.5834C17.302 36.6002 11.3211 43.3209 7.187 51.1654C3.05294 59.01 0.889964 67.7427 0.884766 76.6099H5.7807C6.27724 70.1811 8.04254 63.9142 10.9746 58.1714C13.8234 52.6077 17.7444 47.6623 22.512 43.6199C27.1266 39.7082 32.4701 36.7492 38.2343 34.9136C43.8086 33.1476 49.6775 32.5037 55.5021 33.0191V33.0191Z" fill="#7100C6"/>
<path d="M110.115 76.6099C110.115 76.2566 110.111 75.9032 110.102 75.5498C110.114 75.4011 110.117 75.2519 110.111 75.1028C110.026 72.9827 109.894 70.8498 109.6 68.7466C108.361 59.8012 104.891 51.3112 99.5102 44.0583L95.5253 49.9292C93.7458 52.5517 91.9549 55.1913 90.1526 57.8478C90.6825 59.1026 91.1458 60.3844 91.5405 61.688C92.9942 66.5194 93.4789 71.5906 92.9667 76.6099H110.115Z" fill="#7100C6"/>
</svg>
