<svg width="102" height="102" viewBox="0 0 102 102" fill="none" xmlns="http://www.w3.org/2000/svg">
<path d="M61.1225 72.3911C61.0977 77.6286 56.8248 81.857 51.5824 81.8276C46.3401 81.7978 42.1164 77.5301 42.1459 72.2877L42.4708 11.0261C42.4903 5.78859 46.7682 1.56487 52.0108 1.58962C57.2482 1.61908 61.472 5.88708 61.4422 11.1296L61.1225 72.3911Z" fill="#7100C6"/>
<path d="M74.0788 78.1208C74.0097 90.5309 63.8989 100.538 51.4842 100.469C39.0741 100.405 29.0665 90.2896 29.1307 77.8796C29.1945 65.4698 39.3105 55.4572 51.7252 55.5263C64.1302 55.5904 74.1426 65.7062 74.0788 78.1208Z" fill="#7100C6"/>
<path d="M56.1654 71.8642C56.1459 74.3648 54.1127 76.3832 51.6121 76.3683C49.1115 76.3537 47.0932 74.3159 47.1077 71.815L47.4228 12.0845C47.4376 9.58885 49.4758 7.57054 51.9764 7.58014C54.477 7.59502 56.4903 9.63315 56.4755 12.1338L56.1654 71.8642Z" fill="#7100C6"/>
<path d="M67.3347 78.0815C67.2907 86.7746 60.212 93.7795 51.5183 93.7303C42.8352 93.686 35.8256 86.6026 35.8745 77.9189C35.9188 69.2258 42.9975 62.2209 51.6859 62.2652C60.3743 62.3144 67.379 69.398 67.3347 78.0815Z" fill="#7100C6"/>
<path d="M67.3347 78.0815C67.2907 86.7746 60.212 93.7795 51.5183 93.7303C42.8352 93.686 35.8256 86.6026 35.8745 77.9189C35.9188 69.2258 42.9975 62.2209 51.6859 62.2652C60.3743 62.3144 67.379 69.398 67.3347 78.0815Z" fill="#7100C6"/>
<path d="M47.2998 35.191L47.1077 71.815C47.0932 74.3159 49.1115 76.3537 51.6121 76.3683C54.1127 76.3832 56.1459 74.3648 56.1654 71.8642L56.3575 35.2403L47.2998 35.191Z" fill="#7100C6"/>
<path d="M47.2999 35.191L47.1521 62.9299C40.6694 64.8398 35.9092 70.8058 35.8745 77.9189C35.8256 86.5137 42.6874 93.5237 51.2479 93.7154L51.3412 76.3537L51.4152 62.28L51.558 35.2158L47.2999 35.191Z" fill="#7100C6"/>
<path d="M57.7308 37.608L54.3833 37.5885V36.8157L57.7407 36.8352L57.7308 37.608Z" fill="#7100C6"/>
<path d="M54.373 39.8807L54.3684 40.6583L57.7158 40.6781L57.7203 39.9004L54.373 39.8807Z" fill="#7100C6"/>
<path d="M57.7012 43.7466L54.3535 43.7268V42.954L57.7059 42.9738L57.7012 43.7466Z" fill="#7100C6"/>
<path d="M57.6863 46.8181L54.334 46.7986L54.3389 46.0258L57.6863 46.0456V46.8181Z" fill="#7100C6"/>
<path d="M57.6717 49.8902L54.3196 49.8701V49.0975L57.6766 49.1124L57.6717 49.8902Z" fill="#7100C6"/>
<path d="M57.6516 52.9566L54.2996 52.9418L54.3095 52.1693L57.6566 52.1838L57.6516 52.9566Z" fill="#7100C6"/>
<path d="M57.6371 56.0284L54.2847 56.0136L54.2896 55.2358L57.6417 55.2556L57.6371 56.0284Z" fill="#7100C6"/>
<path d="M57.6224 59.0952L54.27 59.0754L54.2749 58.3076L57.6224 58.3224V59.0952Z" fill="#7100C6"/>
<path d="M57.6025 62.1667L54.2554 62.1521V61.379L57.6078 61.3939L57.6025 62.1667Z" fill="#7100C6"/>
<path d="M68.5383 55.0487C68.275 55.0487 68.0093 55.0192 67.7457 54.9601C66.3896 54.6649 65.4446 53.6753 65.2206 52.3118C65.1711 52.0017 65.3805 51.7065 65.6933 51.657C66.0083 51.608 66.2961 51.8196 66.3478 52.125C66.4931 53.0257 67.0934 53.6508 67.9894 53.8478C68.8608 54.0349 70.0719 53.7642 70.7856 52.7107C71.2877 51.9525 71.2629 50.7615 70.7214 49.9983C70.2367 49.3091 69.4465 49.0777 68.4203 49.3339C68.1418 49.4026 67.8516 49.2549 67.7481 48.9891C67.645 48.7184 67.7581 48.413 68.0117 48.2805C69.0185 47.7436 69.838 47.143 70.4334 46.6214C69.5057 46.592 68.5582 46.5967 67.6376 46.5967C67.1083 46.6019 66.5866 46.6066 66.0696 46.6019C65.7546 46.5967 65.5012 46.3408 65.5037 46.0258C65.5062 45.7108 65.7621 45.4596 66.0746 45.4596C66.0746 45.4596 66.0771 45.4596 66.0796 45.4596C66.5941 45.4596 67.1111 45.4596 67.6326 45.4596C68.9739 45.4496 70.3916 45.445 71.7576 45.5432C71.9669 45.5581 72.1515 45.6909 72.2377 45.883C72.3238 46.075 72.2943 46.3015 72.1661 46.4638C71.7873 46.9463 71.1229 47.5959 70.2073 48.2557C70.788 48.4477 71.2852 48.8119 71.6544 49.3385C72.474 50.5004 72.5059 52.1839 71.7331 53.3454C71.0095 54.4186 69.7909 55.0487 68.5383 55.0487Z" fill="#7100C6"/>
<path d="M79.0405 47.2759C78.8977 47.2759 78.7648 47.2564 78.644 47.2121C78.0682 47.0151 77.7188 46.4195 77.795 45.76C77.8641 45.1396 78.3046 44.6768 78.8903 44.613C78.9101 44.613 79.0381 44.608 79.0381 44.608C79.695 44.608 80.2318 44.9869 80.3916 45.5481C80.5493 46.1391 80.308 46.7249 79.7669 47.0792C79.565 47.2071 79.3041 47.2759 79.0405 47.2759Z" fill="#7100C6"/>
<path d="M75.2455 50.4462C74.9797 50.4462 74.7384 50.4118 74.5269 50.3328C73.4809 49.9686 72.8459 48.8463 72.9887 47.6108C73.1213 46.4489 73.9018 45.6222 74.9773 45.5039C76.277 45.366 77.4782 46.0946 77.7979 47.222C78.1005 48.3198 77.638 49.4175 76.587 50.0918C76.2351 50.3133 75.7353 50.4462 75.2455 50.4462ZM75.2948 46.6313C75.2307 46.6313 75.1644 46.6313 75.1002 46.6409C74.3005 46.7249 74.1481 47.5073 74.1208 47.7436C74.0545 48.3198 74.2735 49.0384 74.9082 49.2598C75.1668 49.3534 75.7232 49.2843 75.974 49.1319C76.203 48.9792 76.9463 48.4229 76.7004 47.5271C76.5229 46.907 75.8684 46.6313 75.2948 46.6313Z" fill="#7100C6"/>
<path d="M75.1519 55.0832C74.8468 55.0832 74.5587 55.0388 74.3174 54.9552C73.0917 54.5219 72.3533 53.2126 72.5209 51.7604C72.6785 50.4019 73.5892 49.437 74.8393 49.3042C76.3676 49.1319 77.7708 49.9933 78.1375 51.3079C78.4919 52.5925 77.9455 53.8819 76.7148 54.6696C76.3134 54.9258 75.7305 55.0832 75.1519 55.0832ZM75.211 50.4264C75.1271 50.4264 75.0435 50.4313 74.9623 50.4366C74.1132 50.5302 73.7292 51.2485 73.6555 51.8936C73.5694 52.6417 73.8571 53.5818 74.6965 53.8773C74.8149 53.9166 74.9747 53.9414 75.1519 53.9414C75.5087 53.9414 75.8807 53.8479 76.0997 53.71C76.9069 53.1931 77.2563 52.4103 77.0373 51.6127C76.8109 50.791 75.9566 50.4264 75.211 50.4264Z" fill="#7100C6"/>
</svg>
