<svg width="100" height="100" viewBox="0 0 100 100" fill="none" xmlns="http://www.w3.org/2000/svg">
<path d="M50 6.89655C73.7672 6.89655 93.1034 26.2328 93.1034 50C93.1034 73.7672 73.7672 93.1034 50 93.1034C26.2328 93.1034 6.89655 73.7672 6.89655 50C6.89655 26.2328 26.2328 6.89655 50 6.89655ZM50 0C22.3862 0 0 22.3862 0 50C0 77.6138 22.3862 100 50 100C77.6138 100 100 77.6138 100 50C100 22.3862 77.6138 0 50 0Z" fill="#7100C6"/>
<path d="M50 10.1362C49.0483 10.1362 48.2759 10.9069 48.2759 11.8604V13.5845C48.2759 14.538 49.0483 15.3086 50 15.3086C50.9517 15.3086 51.7242 14.538 51.7242 13.5845V11.8604C51.7242 10.9069 50.9517 10.1362 50 10.1362Z" fill="#7100C6"/>
<path d="M50 84.2742C49.0483 84.2742 48.2759 85.0449 48.2759 85.9984V87.7225C48.2759 88.676 49.0483 89.4466 50 89.4466C50.9517 89.4466 51.7242 88.676 51.7242 87.7225V85.9984C51.7242 85.0449 50.9517 84.2742 50 84.2742Z" fill="#7100C6"/>
<path d="M87.9309 48.0673H86.2068C85.2551 48.0673 84.4827 48.838 84.4827 49.7915C84.4827 50.7449 85.2551 51.5156 86.2068 51.5156H87.9309C88.8827 51.5156 89.6551 50.7449 89.6551 49.7915C89.6551 48.838 88.8827 48.0673 87.9309 48.0673Z" fill="#7100C6"/>
<path d="M13.793 48.0673H12.0689C11.1171 48.0673 10.3447 48.838 10.3447 49.7915C10.3447 50.7449 11.1171 51.5156 12.0689 51.5156H13.793C14.7447 51.5156 15.5171 50.7449 15.5171 49.7915C15.5171 48.838 14.7447 48.0673 13.793 48.0673Z" fill="#7100C6"/>
<path d="M75.6015 21.75L74.3826 22.969C73.7084 23.6432 73.7084 24.7328 74.3826 25.4069C74.7188 25.7432 75.1601 25.9121 75.6015 25.9121C76.0429 25.9121 76.4843 25.7432 76.8205 25.4069L78.0395 24.188C78.7136 23.5138 78.7136 22.4242 78.0395 21.75C77.3653 21.0759 76.2757 21.0759 75.6015 21.75Z" fill="#7100C6"/>
<path d="M23.1792 74.1741L21.9602 75.3931C21.2861 76.0672 21.2861 77.1568 21.9602 77.831C22.2964 78.1672 22.7378 78.3362 23.1792 78.3362C23.6205 78.3362 24.0619 78.1672 24.3981 77.831L25.6171 76.612C26.2912 75.9379 26.2912 74.8482 25.6171 74.1741C24.943 73.4999 23.8516 73.5017 23.1792 74.1741Z" fill="#7100C6"/>
<path d="M76.8205 74.1741C76.1464 73.4999 75.0567 73.4999 74.3826 74.1741C73.7084 74.8482 73.7084 75.9379 74.3826 76.612L75.6015 77.831C75.9377 78.1672 76.3791 78.3361 76.8205 78.3361C77.2619 78.3361 77.7033 78.1672 78.0395 77.831C78.7136 77.1568 78.7136 76.0672 78.0395 75.393L76.8205 74.1741Z" fill="#7100C6"/>
<path d="M24.3981 21.75C23.724 21.0759 22.6343 21.0759 21.9602 21.75C21.2861 22.4242 21.2861 23.5138 21.9602 24.188L23.1792 25.4069C23.5154 25.7432 23.9567 25.9121 24.3981 25.9121C24.8395 25.9121 25.2809 25.7432 25.6171 25.4069C26.2912 24.7328 26.2912 23.6432 25.6171 22.969L24.3981 21.75Z" fill="#7100C6"/>
<path d="M44.8275 51.5156H31.0344C30.081 51.5156 29.3103 50.7449 29.3103 49.7915C29.3103 48.838 30.081 48.0673 31.0344 48.0673H44.8275C45.781 48.0673 46.5517 48.838 46.5517 49.7915C46.5517 50.7449 45.781 51.5156 44.8275 51.5156Z" fill="#7100C6"/>
<path d="M50 46.3431C49.0466 46.3431 48.2759 45.5725 48.2759 44.619V25.6535C48.2759 24.7 49.0466 23.9294 50 23.9294C50.9535 23.9294 51.7242 24.7 51.7242 25.6535V44.619C51.7242 45.5725 50.9535 46.3431 50 46.3431Z" fill="#7100C6"/>
<path d="M50.0001 56.6879C46.1966 56.6879 43.1035 53.5948 43.1035 49.7914C43.1035 45.9879 46.1966 42.8948 50.0001 42.8948C53.8035 42.8948 56.8966 45.9879 56.8966 49.7914C56.8966 53.5948 53.8035 56.6879 50.0001 56.6879ZM50.0001 46.3431C48.0983 46.3431 46.5518 47.8897 46.5518 49.7914C46.5518 51.6931 48.0983 53.2397 50.0001 53.2397C51.9018 53.2397 53.4483 51.6931 53.4483 49.7914C53.4483 47.8897 51.9018 46.3431 50.0001 46.3431Z" fill="#7100C6"/>
<path d="M79.9828 77.5863H76.5345C70.2707 75.0811 66.1897 69.2052 66.1897 62.6897V56.8966H90.3276V62.6897C90.3276 69.2052 86.2466 75.0811 79.9828 77.5863Z" fill="#7100C6"/>
<path d="M76.5345 77.5862H79.9828C86.2466 80.0914 90.3276 85.9673 90.3276 92.4828V98.2759H66.1897V92.4828C66.1897 85.9673 70.269 80.0914 76.5345 77.5862Z" fill="#7100C6"/>
<path d="M61.0174 58.6207H62.7415H66.1898H95.5001C96.4536 58.6207 97.2243 57.8483 97.2243 56.8966C97.2243 55.9448 96.4536 55.1724 95.5001 55.1724H66.1898H62.7415H61.0174C60.0639 55.1724 59.2932 55.9448 59.2932 56.8966C59.2932 57.8483 60.0639 58.6207 61.0174 58.6207Z" fill="#7100C6"/>
<path d="M95.4984 96.5482H64.4639C64.4587 96.5482 64.4536 96.5516 64.4467 96.5516H61.0174C60.0639 96.5516 59.2932 97.324 59.2932 98.2757C59.2932 99.2275 60.0639 99.9999 61.0174 99.9999H66.1898C66.1949 99.9999 66.2001 99.9964 66.207 99.9964H95.4984C96.4518 99.9964 97.2225 99.224 97.2225 98.2723C97.2225 97.3206 96.4501 96.5482 95.4984 96.5482Z" fill="#7100C6"/>
</svg>
